# Blender v2.77 (sub 0) OBJ File: 'roof_stationary.blend'
# www.blender.org
mtllib roof_stationary.mtl
o Cube.004_Cube.007
v -0.508763 0.069170 0.430158
v -0.430158 0.069170 0.508763
v -0.430158 0.069170 -0.508763
v -0.508763 0.069170 -0.430158
v 0.430158 0.069170 0.508763
v 0.508763 0.069170 0.430158
v 0.508763 0.069170 -0.430158
v 0.430158 0.069170 -0.508763
v -0.389698 0.120726 -0.000000
v 0.407143 0.120726 0.481542
v 0.481542 0.120726 0.407143
v 0.481542 0.120726 -0.407143
v 0.407143 0.120726 -0.481542
v -0.407143 0.120726 -0.481542
v -0.481542 0.120726 -0.407143
v -0.481542 0.120726 0.407143
v -0.407143 0.120726 0.481542
v -0.508763 0.031170 0.430158
v -0.430158 0.031170 0.508763
v -0.430158 0.031170 -0.508763
v -0.508763 0.031170 -0.430158
v 0.430158 0.031170 0.508763
v 0.508763 0.031170 0.430158
v 0.508763 0.031170 -0.430158
v 0.430158 0.031170 -0.508763
v -0.370466 0.031170 0.370466
v -0.370466 0.031170 -0.370466
v 0.370466 0.031170 0.370466
v 0.370466 0.031170 -0.370466
v 0.370466 0.031170 0.000000
v 0.000000 0.031170 -0.370466
v -0.370466 0.031170 0.000000
v 0.000000 0.031170 0.370466
v 0.000000 0.031170 0.000000
v -0.407143 0.069170 0.481542
v -0.481542 0.069170 0.407143
v -0.481542 0.069170 -0.407143
v -0.407143 0.069170 -0.481542
v 0.407143 0.069170 -0.481542
v 0.481542 0.069170 -0.407143
v 0.481542 0.069170 0.407143
v 0.407143 0.069170 0.481542
v -0.389698 0.120726 -0.389698
v 0.000000 0.120726 -0.389698
v 0.389698 0.120726 -0.389698
v 0.389698 0.120726 -0.000000
v 0.389698 0.120726 0.389698
v 0.000000 0.120726 0.389698
v -0.389698 0.120726 0.389698
v 0.000000 0.092522 0.389698
v -0.389698 0.092522 0.389698
v 0.389698 0.092522 -0.000000
v 0.389698 0.092522 0.389698
v 0.000000 0.092522 -0.389698
v 0.389698 0.092522 -0.389698
v -0.389698 0.092522 -0.000000
v -0.389698 0.092522 -0.389698
v 0.000000 0.092522 -0.000000
v 0.111670 0.085331 0.332747
v 0.334757 0.085331 0.056951
v 0.334757 0.085331 0.332747
v 0.111670 0.085331 0.056951
v 0.334757 0.157331 0.056951
v 0.334757 0.157331 0.332747
v 0.111670 0.157331 0.332747
v 0.111670 0.157331 0.056951
v 0.254638 0.088890 -0.240708
v 0.338754 0.088890 -0.344698
v 0.338754 0.088890 -0.240708
v 0.254638 0.088890 -0.344698
v 0.338754 0.116038 -0.344698
v 0.338754 0.116038 -0.240708
v 0.254638 0.116038 -0.240708
v 0.254638 0.116038 -0.344698
v 0.154620 0.088890 -0.240708
v 0.238736 0.088890 -0.344698
v 0.238736 0.088890 -0.240708
v 0.154620 0.088890 -0.344698
v 0.238736 0.116038 -0.344698
v 0.238736 0.116038 -0.240708
v 0.154620 0.116038 -0.240708
v 0.154620 0.116038 -0.344698
v -0.353821 0.088890 0.064478
v -0.314234 0.088890 0.015538
v -0.314234 0.088890 0.064478
v -0.353821 0.088890 0.015538
v -0.314234 0.101322 0.015538
v -0.314234 0.101322 0.064478
v -0.353821 0.101322 0.064478
v -0.353821 0.101322 0.015538
vn 0.000000 1.000000 -0.000000
vn 0.000000 -1.000000 0.000000
vn -0.707100 0.000000 0.707100
vn -0.707100 0.000000 -0.707100
vn 0.707100 0.000000 -0.707100
vn 0.707100 0.000000 0.707100
vn -1.000000 0.000000 0.000000
vn 0.000000 0.000000 1.000000
vn 1.000000 0.000000 0.000000
vn 0.000000 0.000000 -1.000000
usemtl stationary_frame
s off
f 3//1 4//1 37//1 38//1
f 5//1 6//1 41//1 42//1
f 2//1 5//1 42//1 35//1
f 8//1 3//1 38//1 39//1
f 1//1 2//1 35//1 36//1
f 7//1 8//1 39//1 40//1
f 4//1 1//1 36//1 37//1
f 6//1 7//1 40//1 41//1
f 21//2 32//2 26//2 18//2
f 20//2 27//2 32//2 21//2
f 25//2 31//2 27//2 20//2
f 24//2 29//2 31//2 25//2
f 23//2 30//2 29//2 24//2
f 22//2 28//2 30//2 23//2
f 19//2 33//2 28//2 22//2
f 18//2 26//2 33//2 19//2
f 27//2 31//2 34//2 32//2
f 31//2 29//2 30//2 34//2
f 32//2 34//2 33//2 26//2
f 34//2 30//2 28//2 33//2
f 2//3 1//3 18//3 19//3
f 4//4 3//4 20//4 21//4
f 8//5 7//5 24//5 25//5
f 6//6 5//6 22//6 23//6
f 1//7 4//7 21//7 18//7
f 5//8 2//8 19//8 22//8
f 7//9 6//9 23//9 24//9
f 3//10 8//10 25//10 20//10
f 59//2 62//2 60//2 61//2
f 65//1 64//1 63//1 66//1
f 60//10 62//10 66//10 63//10
f 61//9 60//9 63//9 64//9
f 62//7 59//7 65//7 66//7
f 59//8 61//8 64//8 65//8
f 67//2 70//2 68//2 69//2
f 73//1 72//1 71//1 74//1
f 68//10 70//10 74//10 71//10
f 69//9 68//9 71//9 72//9
f 70//7 67//7 73//7 74//7
f 67//8 69//8 72//8 73//8
f 75//2 78//2 76//2 77//2
f 81//1 80//1 79//1 82//1
f 76//10 78//10 82//10 79//10
f 77//9 76//9 79//9 80//9
f 78//7 75//7 81//7 82//7
f 75//8 77//8 80//8 81//8
f 83//2 86//2 84//2 85//2
f 89//1 88//1 87//1 90//1
f 84//10 86//10 90//10 87//10
f 85//9 84//9 87//9 88//9
f 86//7 83//7 89//7 90//7
f 83//8 85//8 88//8 89//8
usemtl stationary_roof
f 13//1 44//1 45//1 12//1
f 14//1 43//1 44//1 13//1
f 15//1 9//1 43//1 14//1
f 16//1 49//1 9//1 15//1
f 38//4 37//4 15//4 14//4
f 42//6 41//6 11//6 10//6
f 35//8 42//8 10//8 17//8
f 39//10 38//10 14//10 13//10
f 36//3 35//3 17//3 16//3
f 40//5 39//5 13//5 12//5
f 37//7 36//7 16//7 15//7
f 41//9 40//9 12//9 11//9
f 12//1 45//1 46//1 11//1
f 11//1 46//1 47//1 10//1
f 10//1 47//1 48//1 17//1
f 17//1 48//1 49//1 16//1
f 44//8 43//8 57//8 54//8
f 48//10 47//10 53//10 50//10
f 49//10 48//10 50//10 51//10
f 45//8 44//8 54//8 55//8
f 43//9 9//9 56//9 57//9
f 47//7 46//7 52//7 53//7
f 9//9 49//9 51//9 56//9
f 46//7 45//7 55//7 52//7
usemtl stationary_rooftop
f 56//1 58//1 54//1 57//1
f 58//1 52//1 55//1 54//1
f 51//1 50//1 58//1 56//1
f 50//1 53//1 52//1 58//1
