# Blender v2.77 (sub 0) OBJ File: 'stop_stationary.blend'
# www.blender.org
mtllib stop_stationary.mtl
o Cube.003_Cube.004
v -0.422749 -0.500000 0.500000
v -0.500000 -0.500000 0.422749
v -0.500000 0.500000 0.422749
v -0.422749 0.500000 0.500000
v -0.500000 -0.500000 -0.422749
v -0.422749 -0.500000 -0.500000
v -0.422749 0.500000 -0.500000
v -0.500000 0.500000 -0.422749
v 0.500000 -0.500000 0.422749
v 0.422749 -0.500000 0.500000
v 0.422749 0.500000 0.500000
v 0.500000 0.500000 0.422749
v 0.422749 -0.500000 -0.500000
v 0.500000 -0.500000 -0.422749
v 0.500000 0.500000 -0.422749
v 0.422749 0.500000 -0.500000
v -0.413625 -0.489208 0.479966
v -0.413625 0.489208 0.479966
v -0.479966 0.489208 0.413625
v -0.479966 -0.489208 0.413625
v -0.413625 0.489208 -0.479966
v -0.413625 -0.489208 -0.479966
v -0.479966 -0.489208 -0.413625
v -0.479966 0.489208 -0.413625
v 0.479966 0.489208 -0.413625
v 0.479966 -0.489208 -0.413625
v 0.413625 -0.489208 -0.479966
v 0.413625 0.489208 -0.479966
v 0.413625 0.489208 0.479966
v 0.413625 -0.489208 0.479966
v 0.479966 -0.489208 0.413625
v 0.479966 0.489208 0.413625
v -0.300000 -0.500000 0.300000
v -0.300000 0.500000 0.300000
v -0.300000 -0.500000 -0.300000
v -0.300000 0.500000 -0.300000
v 0.300000 -0.500000 0.300000
v 0.300000 0.500000 0.300000
v 0.300000 -0.500000 -0.300000
v 0.300000 0.500000 -0.300000
v 0.300000 -0.500000 0.000000
v 0.300000 0.500000 0.000000
v 0.000000 -0.500000 -0.300000
v 0.000000 0.500000 -0.300000
v -0.300000 -0.500000 0.000000
v -0.300000 0.500000 0.000000
v 0.000000 -0.500000 0.300000
v 0.000000 0.500000 0.300000
vn 0.000000 0.880400 -0.474200
vn -0.910100 0.000000 -0.414500
vn 0.000000 0.880400 0.474200
vn -0.707100 0.000000 0.707100
vn -0.707100 0.000000 -0.707100
vn 0.707100 0.000000 -0.707100
vn 0.707100 0.000000 0.707100
vn -0.414500 0.000000 -0.910100
vn 0.910100 0.000000 -0.414500
vn 0.474200 0.880400 0.000000
vn -0.910100 0.000000 0.414500
vn 0.000000 -0.880400 0.474200
vn -0.414500 0.000000 0.910100
vn 0.474200 -0.880400 0.000000
vn 0.414500 0.000000 -0.910100
vn 0.000000 -0.880400 -0.474200
vn 0.910100 0.000000 0.414500
vn -0.474200 -0.880400 0.000000
vn 0.414500 0.000000 0.910100
vn -0.474200 0.880400 0.000000
vn 1.000000 0.000000 0.000000
vn 0.000000 0.000000 1.000000
vn -1.000000 0.000000 0.000000
vn 0.000000 0.000000 -1.000000
vn 0.000000 1.000000 0.000000
vn 0.000000 -1.000000 0.000000
usemtl stationary_frame
s off
f 13//1 6//1 22//1 27//1
f 16//2 13//2 27//2 28//2
f 1//3 10//3 30//3 17//3
f 1//4 4//4 3//4 2//4
f 7//5 6//5 5//5 8//5
f 15//6 14//6 13//6 16//6
f 11//7 10//7 9//7 12//7
f 2//8 3//8 19//8 20//8
f 6//9 7//9 21//9 22//9
f 9//10 14//10 26//10 31//10
f 10//11 11//11 29//11 30//11
f 11//12 4//12 18//12 29//12
f 8//13 5//13 23//13 24//13
f 15//14 12//14 32//14 25//14
f 12//15 9//15 31//15 32//15
f 7//16 16//16 28//16 21//16
f 4//17 1//17 17//17 18//17
f 3//18 8//18 24//18 19//18
f 14//19 15//19 25//19 26//19
f 5//20 2//20 20//20 23//20
f 46//21 45//21 35//21 36//21
f 44//22 43//22 39//22 40//22
f 42//23 41//23 37//23 38//23
f 48//24 47//24 33//24 34//24
f 40//23 39//23 41//23 42//23
f 36//22 35//22 43//22 44//22
f 34//21 33//21 45//21 46//21
f 38//24 37//24 47//24 48//24
f 3//25 34//25 46//25 8//25
f 8//25 46//25 36//25 7//25
f 7//25 36//25 44//25 16//25
f 16//25 44//25 40//25 15//25
f 15//25 40//25 42//25 12//25
f 12//25 42//25 38//25 11//25
f 11//25 38//25 48//25 4//25
f 4//25 48//25 34//25 3//25
f 1//26 33//26 47//26 10//26
f 10//26 47//26 37//26 9//26
f 9//26 37//26 41//26 14//26
f 14//26 41//26 39//26 13//26
f 13//26 39//26 43//26 6//26
f 6//26 43//26 35//26 5//26
f 5//26 35//26 45//26 2//26
f 2//26 45//26 33//26 1//26
usemtl stationary_window
f 25//21 32//21 31//21 26//21
f 29//22 18//22 17//22 30//22
f 21//24 28//24 27//24 22//24
f 19//23 24//23 23//23 20//23
